<svg width="40" height="40" viewBox="0 0 40 40" fill="none" xmlns="http://www.w3.org/2000/svg">
<rect x="1.25" y="1.25" width="37.5" height="37.5" rx="8.75" fill="#7C3AED" stroke="#7C3AED" stroke-width="2.5"/>
<path d="M17.3182 22.0455V32H11.7614V8.72727H17.1364V17.75H17.3295C17.7235 16.6742 18.3674 15.8333 19.2614 15.2273C20.1629 14.6212 21.2652 14.3182 22.5682 14.3182C23.7955 14.3182 24.8636 14.5909 25.7727 15.1364C26.6818 15.6742 27.3864 16.4356 27.8864 17.4205C28.3939 18.4053 28.6439 19.5568 28.6364 20.875V32H23.0795V21.9659C23.0871 20.9962 22.8447 20.2386 22.3523 19.6932C21.8598 19.1477 21.1667 18.875 20.2727 18.875C19.6894 18.875 19.1742 19.0038 18.7273 19.2614C18.2879 19.5114 17.9432 19.8712 17.6932 20.3409C17.4508 20.8106 17.3258 21.3788 17.3182 22.0455Z" fill="white"/>
</svg>
